<svg xmlns="http://www.w3.org/2000/svg" viewBox="0 0 200 200" width="200" height="200">
  <defs>
    <!-- 主渐变 - 科技感蓝紫 -->
    <linearGradient id="mainGrad" x1="0%" y1="0%" x2="100%" y2="100%">
      <stop offset="0%" style="stop-color:#6366f1;stop-opacity:1" />
      <stop offset="50%" style="stop-color:#8b5cf6;stop-opacity:1" />
      <stop offset="100%" style="stop-color:#a855f7;stop-opacity:1" />
    </linearGradient>

    <!-- 背景渐变 -->
    <linearGradient id="bgGrad" x1="0%" y1="0%" x2="100%" y2="100%">
      <stop offset="0%" style="stop-color:#f5f3ff;stop-opacity:1" />
      <stop offset="100%" style="stop-color:#ede9fe;stop-opacity:1" />
    </linearGradient>

    <!-- 光效渐变 -->
    <linearGradient id="glowGrad" x1="0%" y1="0%" x2="0%" y2="100%">
      <stop offset="0%" style="stop-color:#ffffff;stop-opacity:0.8" />
      <stop offset="100%" style="stop-color:#ffffff;stop-opacity:0" />
    </linearGradient>

    <!-- 阴影 -->
    <filter id="dropShadow" x="-50%" y="-50%" width="200%" height="200%">
      <feDropShadow dx="0" dy="8" stdDeviation="12" flood-color="#8b5cf6" flood-opacity="0.25"/>
    </filter>

    <!-- 内发光 -->
    <filter id="innerGlow" x="-50%" y="-50%" width="200%" height="200%">
      <feGaussianBlur in="SourceAlpha" stdDeviation="3"/>
      <feOffset dx="0" dy="2"/>
      <feComposite in2="SourceAlpha" operator="arithmetic" k2="-1" k3="1"/>
      <feColorMatrix type="matrix" values="0 0 0 0 1  0 0 0 0 1  0 0 0 0 1  0 0 0 0.5 0"/>
    </filter>
  </defs>

  <!-- 外圆背景 -->
  <circle cx="100" cy="100" r="92" fill="url(#bgGrad)" />

  <!-- 装饰圆环 -->
  <circle cx="100" cy="100" r="88" fill="none" stroke="url(#mainGrad)" stroke-width="1.5" opacity="0.3"/>
  <circle cx="100" cy="100" r="82" fill="none" stroke="url(#mainGrad)" stroke-width="0.8" opacity="0.15"/>

  <!-- 主图标组 -->
  <g transform="translate(100, 100)" filter="url(#dropShadow)">

    <!-- 停车牌底座 -->
    <rect x="-45" y="-50" width="90" height="100" rx="14" fill="url(#mainGrad)"/>

    <!-- 高光效果 -->
    <rect x="-38" y="-44" width="76" height="40" rx="10" fill="url(#glowGrad)" opacity="0.4"/>

    <!-- P 字母 -->
    <g transform="translate(0, -5)">
      <!-- P 的竖线 -->
      <rect x="-22" y="-32" width="14" height="64" rx="3" fill="white"/>
      <!-- P 的圆弧 -->
      <path d="M -8 -32
               L 2 -32
               Q 24 -32, 24 -16
               Q 24 0, 2 0
               L -8 0"
            fill="none"
            stroke="white"
            stroke-width="14"
            stroke-linecap="round"
            stroke-linejoin="round"/>
    </g>

    <!-- 底部横线（停车线） -->
    <rect x="-30" y="42" width="60" height="6" rx="3" fill="white" opacity="0.6"/>

  </g>

  <!-- 装饰点 -->
  <circle cx="38" cy="50" r="4" fill="#8b5cf6" opacity="0.6"/>
  <circle cx="162" cy="150" r="4" fill="#6366f1" opacity="0.6"/>
  <circle cx="162" cy="50" r="3" fill="#a855f7" opacity="0.4"/>
  <circle cx="38" cy="150" r="3" fill="#8b5cf6" opacity="0.4"/>

</svg>
